# xmcd
#
# Track frame offsets:
# 150
# 17027
# 41160
# 66280
# 104372
# 126275
# 140447
# 163677
# 180770
# 192057
#
# Disc length: 2819 seconds
#
#
# Revision: 3
# Processed by: cddbd v1.5.2PL0 Copyright (c) Steve Scherf et al.
# Submitted via: FreeRIP 2.90 
#
DISCID=840b010a
DTITLE=Charlie Musselwhite - Signature
DYEAR=1991
DGENRE=Blues
TTITLE0=Make My Getaway
TTITLE1=Blues Got Me Again
TTITLE2=Mama Long Legs
TTITLE3=38 Special
TTITLE4=It's Getting Warm In Here
TTITLE5=What's New?
TTITLE6=Hey! Miss Bessie
TTITLE7=Me And My Baby And The Blues
TTITLE8=Catwalk
TTITLE9=Cheatin' On Me
EXTD=
EXTT0=
EXTT1=
EXTT2=
EXTT3=
EXTT4=
EXTT5=
EXTT6=
EXTT7=
EXTT8=
EXTT9=
PLAYORDER=
